<?xml version="1.0" encoding="UTF-8"?>
<svg xmlns="http://www.w3.org/2000/svg" version="1.1" viewBox="0 0 179.1 202.17">
  <defs>
    <style>
      .cls-1 {
        fill: #ded9f4;
      }

      .cls-2 {
        fill: #9a81d4;
      }
    </style>
  </defs>
  <!-- Generator: Adobe Illustrator 28.7.1, SVG Export Plug-In . SVG Version: 1.2.0 Build 142)  -->
  <g>
    <g id="Layer_1">
      <g>
        <path class="cls-2" d="M168.18,58.26C145.28,16.22,93.58-.15,50.9,20.32l3.6,4.2c31.01-12.54,71.19,6.74,92.25,45.41,22.28,40.91,14.73,88.01-16.85,105.22-31.59,17.2-75.26-2.01-97.54-42.92-19.43-35.68-16.17-76.08,5.94-97.23l-2.32-5.66C.81,55.54-10.66,104.28,10.92,143.91c23.65,43.42,78.03,59.45,121.45,35.8,43.42-23.65,59.45-78.03,35.8-121.45Z"/>
        <polygon class="cls-1" points="92.3 107.54 133.37 110.72 98.16 95.96 98 95.84 99.18 53.98 84.9 88.62 84.3 89.35 42.44 88.17 79.81 103.58 73.21 155.86 92.3 107.54"/>
        <polygon class="cls-2" points="28.63 0 97.43 80.34 133.66 71.42 110.03 105.02 150.46 202.17 78 125.5 38.09 129.18 67.67 95.34 28.63 0"/>
      </g>
    </g>
  </g>
</svg>