<?xml version="1.0" encoding="UTF-8"?>
<svg xmlns="http://www.w3.org/2000/svg" version="1.1" viewBox="0 0 1272 202.17">
  <defs>
    <style>
      .cls-1 {
        fill: #ded9f4;
      }

      .cls-2 {
        fill: #ffffff;
      }
    </style>
  </defs>
  <!-- Generator: Adobe Illustrator 28.7.1, SVG Export Plug-In . SVG Version: 1.2.0 Build 142)  -->
  <g>
    <g id="Layer_1">
      <g>
        <g>
          <path class="cls-2" d="M168.18,58.26C145.28,16.22,93.58-.15,50.9,20.32l3.6,4.2c31.01-12.54,71.19,6.74,92.25,45.41,22.28,40.91,14.73,88.01-16.85,105.22-31.59,17.2-75.26-2.01-97.54-42.92-19.43-35.68-16.17-76.08,5.94-97.23l-2.32-5.66C.81,55.54-10.66,104.28,10.92,143.91c23.65,43.42,78.03,59.45,121.45,35.8,43.42-23.65,59.45-78.03,35.8-121.45Z"/>
          <polygon class="cls-1" points="92.3 107.54 133.37 110.72 98.16 95.96 98 95.84 99.18 53.98 84.9 88.62 84.3 89.35 42.44 88.17 79.81 103.58 73.21 155.86 92.3 107.54"/>
          <polygon class="cls-2" points="28.63 0 97.43 80.34 133.66 71.42 110.03 105.02 150.46 202.17 78 125.5 38.09 129.18 67.67 95.34 28.63 0"/>
        </g>
        <g>
          <path class="cls-2" d="M227.59,93.17c0-34.23,21.56-57,53.83-57,26.09,0,45.54,15.23,49.31,38.9h-20.36c-3.77-12.82-14.78-20.36-29.4-20.36-20.36,0-33.17,14.78-33.17,38.3s12.97,38.45,33.17,38.45c14.93,0,26.39-7.84,30.01-20.05h20.06c-4.22,23.22-24.43,38.6-50.51,38.6-32.12,0-52.93-22.32-52.93-56.85Z"/>
          <path class="cls-2" d="M378.08,71.61c23.07,0,39.81,15.98,39.81,39.2s-16.74,39.21-39.81,39.21-39.81-15.98-39.81-39.21,16.74-39.2,39.81-39.2ZM378.08,133.58c12.67,0,21.41-9.2,21.41-22.77s-8.74-22.77-21.41-22.77-21.41,9.2-21.41,22.77,8.74,22.77,21.41,22.77Z"/>
          <path class="cls-2" d="M429.8,148.21V36.02h18.25v112.19h-18.25Z"/>
          <path class="cls-2" d="M459.96,111.26c0-23.22,13.57-39.81,36.04-39.81,10.4,0,19.6,4.37,24.28,11.76v-47.19h18.24v112.19h-16.88l-1.21-11.61c-4.52,8.6-14.17,13.57-25.48,13.57-21.56,0-34.99-15.83-34.99-38.9ZM520.13,110.66c0-13.42-8.29-22.77-21.11-22.77s-20.66,9.5-20.66,22.77,7.84,22.62,20.66,22.62,21.11-9.2,21.11-22.62Z"/>
          <path class="cls-2" d="M595.08,148.21V37.98h19.15l51.72,78.11V37.98h19v110.22h-19l-51.87-78.11v78.11h-19Z"/>
          <path class="cls-2" d="M762.46,70.09h16.59v78.11h-16.59v-11.16c-5.33,8.65-14.12,12.97-26.39,12.97-11.16,0-19.98-3.9-26.47-11.69-6.48-7.79-9.73-17.51-9.73-29.18s3.25-21.39,9.73-29.18c6.49-7.79,15.31-11.69,26.47-11.69,12.26,0,21.06,4.32,26.39,12.97v-11.16ZM723.86,91.28c-4.02,4.78-6.04,10.73-6.04,17.87s2.01,13.1,6.04,17.87c4.02,4.78,9.35,7.16,15.98,7.16s12.09-2.36,16.06-7.09c3.97-4.72,5.95-10.71,5.95-17.95s-1.98-13.22-5.95-17.94c-3.97-4.72-9.32-7.09-16.06-7.09s-11.97,2.39-15.98,7.16Z"/>
          <path class="cls-2" d="M787.95,73.72h19.6l12.97,34.23c3.17,8.9,5.73,16.59,6.63,20.66,1.05-4.67,3.77-12.51,6.94-20.66l13.57-34.23h19l-31.07,74.49h-18.09l-29.56-74.49Z"/>
          <path class="cls-2" d="M872.09,47.63c0-6.18,4.98-11.01,11.31-11.01s11.01,4.83,11.01,11.01-4.98,11.16-11.01,11.16c-6.33,0-11.31-4.98-11.31-11.16ZM874.2,73.72h18.39v74.49h-18.39v-74.49Z"/>
          <path class="cls-2" d="M939.79,71.31c11.16,0,19.9,4.67,24.28,12.67l1.05-10.25h17.04v70.72c0,24.88-14.93,40.41-39.06,40.41-21.41,0-36.04-12.21-38.3-32.12h18.39c1.21,9.65,8.6,15.38,19.9,15.38,12.67,0,20.81-7.99,20.81-20.36v-12.36c-4.67,6.94-13.87,11.31-24.58,11.31-21.11,0-34.98-15.83-34.98-37.4s14.17-38,35.43-38ZM942.96,130.72c12.67,0,20.5-8.9,20.5-21.87s-7.69-21.41-20.5-21.41-20.05,9.2-20.05,21.41,7.99,21.87,20.05,21.87Z"/>
          <path class="cls-2" d="M1056.96,70.09h16.59v78.11h-16.59v-11.16c-5.33,8.65-14.12,12.97-26.39,12.97-11.16,0-19.98-3.9-26.47-11.69-6.48-7.79-9.73-17.51-9.73-29.18s3.25-21.39,9.73-29.18c6.49-7.79,15.31-11.69,26.47-11.69,12.26,0,21.06,4.32,26.39,12.97v-11.16ZM1018.36,91.28c-4.02,4.78-6.04,10.73-6.04,17.87s2.01,13.1,6.04,17.87c4.02,4.78,9.35,7.16,15.98,7.16s12.09-2.36,16.06-7.09c3.97-4.72,5.95-10.71,5.95-17.95s-1.98-13.22-5.95-17.94c-3.97-4.72-9.32-7.09-16.06-7.09s-11.97,2.39-15.98,7.16Z"/>
          <path class="cls-2" d="M1097.83,148.21v-59.11h-14.32v-15.38h14.32v-23.22h18.4v23.22h14.47v15.38h-14.47v59.11h-18.4Z"/>
          <path class="cls-2" d="M1173.83,71.61c23.07,0,39.81,15.98,39.81,39.2s-16.74,39.21-39.81,39.21-39.81-15.98-39.81-39.21,16.74-39.2,39.81-39.2ZM1173.83,133.58c12.67,0,21.41-9.2,21.41-22.77s-8.74-22.77-21.41-22.77-21.41,9.2-21.41,22.77,8.74,22.77,21.41,22.77Z"/>
          <path class="cls-2" d="M1272,90.46h-6.78c-13.27,0-21.56,7.09-21.56,21.56v36.19h-18.39v-74.34h17.34l1.05,10.86c3.16-7.39,10.25-12.36,20.21-12.36,2.56,0,5.12.3,8.14,1.05v17.04Z"/>
        </g>
      </g>
    </g>
  </g>
</svg>